<svg xmlns="http://www.w3.org/2000/svg" viewBox="0 0 100 89.12">
	<defs>
    <style>
      svg {
        fill: #7081ae;
      }
    </style>
  </defs><g id="Layer_2" data-name="Layer 2"><g id="Layer_1-2" data-name="Layer 1"><path d="M81.86,27.77V9a2.61,2.61,0,0,0-2.61-2.61H71.77A2.61,2.61,0,0,0,69.16,9V16.7L50,0,1.28,42.46A3.7,3.7,0,0,0,3.71,49h0A3.7,3.7,0,0,0,6.15,48L50,9.72,93.85,48a3.7,3.7,0,0,0,2.44.91h0a3.7,3.7,0,0,0,2.43-6.5Z"/><path d="M50,14.58,12.69,46.73V89.12H37.83V57a1.67,1.67,0,0,1,1.67-1.67h21A1.67,1.67,0,0,1,62.17,57V89.12H87.31V46.73Z"/></g></g></svg>