<svg xmlns="http://www.w3.org/2000/svg" viewBox="0 0 99.9 99.89"><defs>
    <style>
      path {
        fill: #868686;
      }
    </style>
  </defs><title>search_icon</title><g id="Layer_2" data-name="Layer 2"><g id="Layer_1-2" data-name="Layer 1"><path d="M38.25,0A38.25,38.25,0,1,0,76.5,38.25,38.25,38.25,0,0,0,38.25,0Zm0,65.75a27.5,27.5,0,1,1,27.5-27.5A27.5,27.5,0,0,1,38.25,65.75Z"/><path d="M63.5,75.5s5.75-2.92,12-11.83l22.83,23s4.17,6.75-1.08,11.17-11.08.33-11.08.33Z"/><path d="M18.5,34.42S18.92,21.75,32.42,20c0,0,3.17-.5,3.25,2s-2.42,2.17-3.33,2.08a9.7,9.7,0,0,0-9.5,9.17s.17,3.83-1.83,4S18.41,35.33,18.5,34.42Z"/></g></g></svg>