<svg xmlns="http://www.w3.org/2000/svg" viewBox="0 0 95.51 100"><title>login_user_icon</title><g id="Layer_2" data-name="Layer 2"><g id="Layer_1-2" data-name="Layer 1"><g id="g2982"><path id="path3872" d="M47.75,0C27.39,0,27.64,17.77,27.64,17.77l-.13,9.45c-1.66,0-2.06,1.63-2.06,4.91,0,4.93,3,10.08,5.74,12.75a22.27,22.27,0,0,0,5.07,9.88l-.26.15h0c-8.11,4.95-17.79,8.3-24.11,11.65a15.83,15.83,0,0,0-5.11,4.61,30.57,30.57,0,0,0-2.69,4.51L4,75.85l-.31.66A40.3,40.3,0,0,0,.57,86.77l0,.2c0,.16-.06.33-.08.49-.11.61-.21,1.2-.3,1.8A12.65,12.65,0,0,0,0,91.31s0,.06,0,.09c-.23,3.19,5.77,4.23,5.77,4.23A89,89,0,0,0,17.15,97.7,205.29,205.29,0,0,0,44.21,100q1.31,0,2.73,0h1.62q1.42,0,2.73,0a205.39,205.39,0,0,0,27-2.25,89.2,89.2,0,0,0,11.39-2.07s6-1,5.76-4.23c0,0,0-.06,0-.09a12.66,12.66,0,0,0-.13-2.05c-.12-.85-.26-1.71-.43-2.58a39.7,39.7,0,0,0-3.62-11.16l-.06-.12a30.29,30.29,0,0,0-2.54-4.22,15.85,15.85,0,0,0-5.12-4.61c-6.32-3.35-16-6.7-24.11-11.65h0l-.26-.15a22.27,22.27,0,0,0,5.07-9.88c2.73-2.66,5.74-7.82,5.74-12.75,0-3.29-.41-4.94-2.07-4.91l-.12-9.45S68.11,0,47.75,0Z"/></g></g></g></svg>