<svg xmlns="http://www.w3.org/2000/svg" width="22.39" height="22.4">
  <g>
   <path fill="#ffffff" d="m13.9781,11.198l7.6485,7.647c0.768,0.768 0.7681,2.013 0.0002,2.781c-0.7678,0.768 -2.0129,0.768 -2.7809,0l-7.6486,-7.647l-7.6467,7.648c-0.7679,0.768 -2.0129,0.768 -2.781,0c-0.768,-0.768 -0.7681,-2.013 -0.0002,-2.781l7.6467,-7.648l-7.648,-7.647c-0.768,-0.768 -0.7681,-2.013 -0.0003,-2.781c0.7679,-0.768 2.013,-0.768 2.781,0l7.6481,7.647l7.6472,-7.649c0.7679,-0.768 2.0129,-0.768 2.781,0c0.768,0.768 0.7681,2.013 0.0002,2.781l-7.6472,7.649z"/>
  </g>
</svg>