<svg xmlns="http://www.w3.org/2000/svg" viewBox="0 0 99.61 80.17"><defs>
    <style>
      svg {
        fill: #1d3963;
      }
    </style>
  </defs><title>popular_icon</title><g id="Layer_2" data-name="Layer 2"><g id="Layer_1-2" data-name="Layer 1"><path d="M99.27,21.47,84.63.79A1.86,1.86,0,0,0,83.11,0H16.5A1.86,1.86,0,0,0,15,.79L.34,21.48a1.86,1.86,0,0,0,.11,2.28L47.92,79.3a2.48,2.48,0,0,0,3.77,0L99.16,23.76A1.85,1.85,0,0,0,99.27,21.47ZM91.59,25,56.39,66.17,70.58,25ZM78,5,68.52,18.6,55.57,5ZM36.56,20l13.24-14L63,20ZM31.09,18.6,21.57,5H44ZM7.43,20,16.81,6.79,26,20ZM8,25H29L43.22,66.17Zm57.32,0L49.81,70.1,34.27,25Zm8.22-5L82.8,6.79,92.18,20Z"/></g></g></svg>