<svg xmlns="http://www.w3.org/2000/svg" viewBox="0 0 99.78 59.19"><title>password_vissible_icon</title><g id="Layer_2" data-name="Layer 2"><g id="Layer_1-2" data-name="Layer 1"><path d="M49.89,14.45A14.28,14.28,0,0,0,43.36,16a5,5,0,0,1-3.52,8.55A4.56,4.56,0,0,1,36.32,23a14.28,14.28,0,0,0-1.51,6.53A15.08,15.08,0,1,0,49.89,14.45Z"/><path d="M49.89,0A57.16,57.16,0,0,0,.5,28.65l-.5.88.5,1A57.43,57.43,0,0,0,49.89,59.19,57.16,57.16,0,0,0,99.28,30.54l.5-1-.5-1A57.31,57.31,0,0,0,49.89,0ZM4.27,29.53A53.82,53.82,0,0,1,38.58,5a27,27,0,0,0,0,49A54.13,54.13,0,0,1,4.27,29.53Zm22.37,0A23.25,23.25,0,1,1,49.89,52.78,23.28,23.28,0,0,1,26.64,29.53ZM61.2,54a27,27,0,0,0,0-49A54.13,54.13,0,0,1,95.51,29.53,54.13,54.13,0,0,1,61.2,54Z"/></g></g></svg>