<svg xmlns="http://www.w3.org/2000/svg" viewBox="0 0 99.89 78.13"><title>password_invisible_icon</title><g id="Layer_2" data-name="Layer 2"><g id="Layer_1-2" data-name="Layer 1"><path d="M49.94,54.22A15.14,15.14,0,0,0,65,39.13a14.22,14.22,0,0,0-1.13-5.66L44.28,53.09A14.22,14.22,0,0,0,49.94,54.22Z"/><path d="M79.51,17.86l-2.77,2.77A52.77,52.77,0,0,1,95.49,39.13,53.88,53.88,0,0,1,61.14,63.66,27,27,0,0,0,76.87,39.13a26.05,26.05,0,0,0-4.28-14.47l-2.52,2.77a22.92,22.92,0,0,1,3.15,11.7A23.3,23.3,0,0,1,49.94,62.4a22.92,22.92,0,0,1-11.7-3.15L35.48,62l-.63.63-3,3a55.3,55.3,0,0,0,18.12,3A57.23,57.23,0,0,0,99.39,40l.5-1-.5-1A59.66,59.66,0,0,0,79.51,17.86Z"/><path d="M24,62.4,10.82,75.48l2.64,2.64L88.82,2.77l.13-.13L86.3,0,72.21,14.22A55.6,55.6,0,0,0,49.94,9.56,57.23,57.23,0,0,0,.5,38.24l-.5.88.5,1A57.22,57.22,0,0,0,24,62.4ZM69.32,17.11l-1.64,1.64a28.1,28.1,0,0,0-6.42-4.15A45.9,45.9,0,0,1,69.32,17.11ZM65,21.39l-5.79,5.79A14.85,14.85,0,0,0,49.94,24a14.3,14.3,0,0,0-6.54,1.51,5,5,0,0,1-3.52,8.55,4.57,4.57,0,0,1-3.52-1.51,14.3,14.3,0,0,0-1.51,6.54A15.11,15.11,0,0,0,38,48.44l-5.79,5.79A23.3,23.3,0,0,1,49.94,15.85,23.67,23.67,0,0,1,65,21.39ZM38.62,14.59a27,27,0,0,0-9.06,42.27L26.8,59.63A52.8,52.8,0,0,1,4.28,39.13,54.19,54.19,0,0,1,38.62,14.59Z"/></g></g></svg>