<svg xmlns="http://www.w3.org/2000/svg" viewBox="0 0 99.98 70.9"><defs>
    <style>
      svg {
        fill: #aea269;
      }
    </style>
  </defs><title>slots_icon</title><g id="Layer_2" data-name="Layer 2"><g id="Layer_1-2" data-name="Layer 1"><path d="M75.69,29.68V25.16h-20V46.48h20Zm-4.85,4.58-.47.87A18.18,18.18,0,0,0,68,44a1.5,1.5,0,0,1-1.5,1.5H64.31a.62.62,0,0,1-.62-.62v-.12c0-.2,0-.41,0-.61.13-4.88,2.75-9.84,4.44-12.54-.47-.11-1.28-.32-1.69-.48a4,4,0,0,0-1.23-.21,1.65,1.65,0,0,0-1.47.67,4.79,4.79,0,0,0-.65,2.05,1.61,1.61,0,0,1-1.54,1.47,1.47,1.47,0,0,1-1.47-1.47v-5a1.09,1.09,0,0,1,1.08-1.09,1.78,1.78,0,0,1,1.27.82l0,0A4.31,4.31,0,0,0,63.68,28a6.51,6.51,0,0,1,2.78-.55,4,4,0,0,1,.74.07,4.18,4.18,0,0,1,1.27.54,2.84,2.84,0,0,0,1.35.49,1,1,0,0,0,.34,0,.6.6,0,0,0,.37-.31.77.77,0,0,1,.68-.55h.9a.76.76,0,0,1,.76.76,7.24,7.24,0,0,1-.12,1.28A15.51,15.51,0,0,1,70.84,34.25Z"/><path d="M53.54,29.68V25.16h-20V46.48h20Zm-5.62,4.58-.47.87A18.18,18.18,0,0,0,45.06,44a1.5,1.5,0,0,1-1.5,1.5H41.39a.62.62,0,0,1-.62-.62v-.12c0-.2,0-.41,0-.61.13-4.88,2.75-9.84,4.44-12.54-.47-.11-1.28-.32-1.69-.48a4,4,0,0,0-1.23-.21,1.65,1.65,0,0,0-1.47.67,4.79,4.79,0,0,0-.65,2.05,1.61,1.61,0,0,1-1.54,1.47,1.47,1.47,0,0,1-1.47-1.47v-5a1.09,1.09,0,0,1,1.08-1.09,1.78,1.78,0,0,1,1.27.82l0,0A4.3,4.3,0,0,0,40.76,28a6.51,6.51,0,0,1,2.78-.55,4,4,0,0,1,.74.07,4.18,4.18,0,0,1,1.27.54,2.85,2.85,0,0,0,1.35.49,1,1,0,0,0,.34,0,.6.6,0,0,0,.37-.31.77.77,0,0,1,.68-.55h.9a.76.76,0,0,1,.76.76,7.24,7.24,0,0,1-.12,1.28A15.51,15.51,0,0,1,47.92,34.25Z"/><path d="M31.39,29.68V25.16h-20V46.48h20Zm-5.18,4.58-.47.87A18.18,18.18,0,0,0,23.35,44a1.5,1.5,0,0,1-1.5,1.5H19.68a.62.62,0,0,1-.62-.62v-.12c0-.2,0-.41,0-.61.13-4.88,2.75-9.84,4.44-12.54-.47-.11-1.28-.32-1.69-.48a4,4,0,0,0-1.23-.21,1.65,1.65,0,0,0-1.47.67,4.79,4.79,0,0,0-.65,2.05,1.61,1.61,0,0,1-1.54,1.47,1.47,1.47,0,0,1-1.47-1.47v-5a1.09,1.09,0,0,1,1.08-1.09,1.78,1.78,0,0,1,1.27.82l0,0A4.31,4.31,0,0,0,19,28a6.51,6.51,0,0,1,2.78-.55,4,4,0,0,1,.74.07,4.18,4.18,0,0,1,1.27.54,2.84,2.84,0,0,0,1.35.49,1,1,0,0,0,.34,0,.6.6,0,0,0,.37-.31.77.77,0,0,1,.68-.55h.9a.76.76,0,0,1,.76.76,7.24,7.24,0,0,1-.12,1.28A15.51,15.51,0,0,1,26.21,34.25Z"/><path d="M96.86,0h-.64a3.11,3.11,0,0,0-3.11,3.11V21.52A3.1,3.1,0,0,0,94.38,24V34.29H89V29.61A3.63,3.63,0,0,0,85.36,26H83.42V19a3.63,3.63,0,0,0-3.63-3.63h-7.2s0,0,0,0V8.41A3.63,3.63,0,0,0,69,4.78H17a3.63,3.63,0,0,0-3.63,3.63V15.3s0,0,0,0h-6A3.63,3.63,0,0,0,3.68,19V53.71H3.63A3.63,3.63,0,0,0,0,57.34v3.44a3.63,3.63,0,0,0,3.63,3.63h.05V70.9H83.42V64.39a3.63,3.63,0,0,0,3.21-3.6V57.34a3.63,3.63,0,0,0-3.21-3.6v-6h1.95A3.63,3.63,0,0,0,89,44.15V38.44h7.46a2.07,2.07,0,0,0,2.07-2.07V24.15A3.11,3.11,0,0,0,100,21.52V3.11A3.11,3.11,0,0,0,96.86,0ZM62,9a2.28,2.28,0,1,1-2.28,2.28A2.28,2.28,0,0,1,62,9ZM51.77,9a2.28,2.28,0,1,1-2.28,2.28A2.28,2.28,0,0,1,51.77,9ZM41.52,9a2.28,2.28,0,1,1-2.28,2.28A2.28,2.28,0,0,1,41.52,9ZM31.28,9A2.28,2.28,0,1,1,29,11.24,2.28,2.28,0,0,1,31.28,9ZM21,9a2.28,2.28,0,1,1-2.28,2.28A2.28,2.28,0,0,1,21,9ZM73.11,60.66a1.64,1.64,0,0,1-1.64,1.64H15.64a1.64,1.64,0,1,1,0-3.29H71.46A1.64,1.64,0,0,1,73.11,60.66ZM8.84,20.6l69.43,0v8.93s0,0,0,.06v21.7l-69.43,0V20.6Z"/></g></g></svg>