<svg xmlns="http://www.w3.org/2000/svg" viewBox="0 0 100 100">
	<defs>
    <style>
      svg {
        fill: #aea269;
      }
    </style>
  </defs><title>tables_icon</title><g id="Layer_2" data-name="Layer 2"><g id="Layer_1-2" data-name="Layer 1"><circle cx="50" cy="50" r="2.63" transform="translate(-16.59 73.78) rotate(-64.65)"/><path d="M61.48,25.76A26.82,26.82,0,1,0,74.24,61.48,26.82,26.82,0,0,0,61.48,25.76Zm11.1,34.37a2.07,2.07,0,0,1-.15.43l-.1.19a2.05,2.05,0,0,1-3.79-1.35l-1.9-.72c-1.2-.46-2.5-1-3.86-1.53S60,56,58.52,55.36c-.74-.31-1.48-.64-2.24-1l-1.14-.5L54,53.36,53,52.93a4.36,4.36,0,0,1-3.4,1.21l-.46.93c-.37.76-.75,1.5-1.12,2.24s-.74,1.46-1.11,2.17c-.73,1.42-1.46,2.79-2.16,4.09s-1.38,2.51-2,3.63q-.64,1.11-1.21,2.09a2,2,0,0,1-2.06,3.41l-.27-.1L39,72.46a2,2,0,0,1,1.33-3.75c.26-.71.54-1.46.85-2.26.46-1.2,1-2.5,1.53-3.86s1.15-2.79,1.79-4.27c.31-.74.64-1.49,1-2.24s.67-1.52,1-2.28l.43-.95a4.34,4.34,0,0,1-1.21-3.4L44.77,49l-2.24-1.12-2.18-1.11c-1.43-.74-2.79-1.46-4.09-2.16s-2.51-1.38-3.63-2l-1.67-1a2.05,2.05,0,0,1-3.44-2.07l.08-.21a2.1,2.1,0,0,1,.25-.39,2,2,0,0,1,3.66,1.31l1.89.71c1.2.46,2.49,1,3.86,1.53s2.79,1.15,4.27,1.79l2.24,1,2.28,1,.95.43a4.35,4.35,0,0,1,3.39-1.21l.46-.94.56-1.13L52,42.33c.37-.74.74-1.46,1.11-2.17.74-1.43,1.46-2.8,2.17-4.09s1.38-2.51,2-3.63l1-1.81a2.05,2.05,0,0,1,2-3.39l.31.12a2.25,2.25,0,0,1,.29.17,2.05,2.05,0,0,1-1.33,3.73c-.23.61-.47,1.27-.74,1.95-.46,1.2-1,2.5-1.53,3.86s-1.15,2.79-1.79,4.27c-.31.74-.65,1.48-1,2.24l-.5,1.14-.52,1.14-.43.95a4.35,4.35,0,0,1,1.21,3.39l.94.46,1.13.56,1.11.56c.74.37,1.46.74,2.17,1.11,1.43.74,2.79,1.46,4.09,2.17s2.51,1.38,3.63,2l1.83,1.06a2.05,2.05,0,0,1,3.34,2Z"/><path d="M50,100a50,50,0,1,1,50-50A50.06,50.06,0,0,1,50,100ZM50,2.75A47.26,47.26,0,1,0,97.26,50,47.31,47.31,0,0,0,50,2.75Z"/><path d="M19.75,60.24a31.81,31.81,0,0,0,4.2,8.21L16.33,74A41.16,41.16,0,0,1,10.8,63.15l9-2.91m.25-.49L10.3,62.9a41.66,41.66,0,0,0,5.94,11.63l8.25-6A31.44,31.44,0,0,1,20,59.75Z"/><path d="M24.49,68.54l-8.25,6a42.11,42.11,0,0,0,9.23,9.23l6-8.25A31.79,31.79,0,0,1,24.49,68.54Z"/><path d="M31.55,76.06a31.85,31.85,0,0,0,8.21,4.2l-2.91,9A41.24,41.24,0,0,1,26,83.67l5.53-7.61m-.09-.55-6,8.25A41.63,41.63,0,0,0,37.1,89.7L40.25,80a31.45,31.45,0,0,1-8.79-4.49Z"/><path d="M18.45,50H8.26a41.57,41.57,0,0,0,2,12.9L20,59.75A31.38,31.38,0,0,1,18.45,50Z"/><path d="M40.25,80,37.1,89.7a41.54,41.54,0,0,0,12.9,2V81.55A31.45,31.45,0,0,1,40.25,80Z"/><path d="M59.75,80l3.15,9.7a41.58,41.58,0,0,0,11.63-5.94l-6-8.25A31.49,31.49,0,0,1,59.75,80Z"/><path d="M80,59.75a31.44,31.44,0,0,1-4.49,8.79l8.25,6A41.67,41.67,0,0,0,89.7,62.9Z"/><path d="M10.55,37.59l9,2.91a31.8,31.8,0,0,0-1.45,9.11H8.65a41.14,41.14,0,0,1,1.9-12m-.25-.49a41.58,41.58,0,0,0-2,12.9H18.45A31.37,31.37,0,0,1,20,40.25L10.3,37.1Z"/><path d="M59.5,80.5l2.91,9a41.24,41.24,0,0,1-12,1.9V81.94A31.87,31.87,0,0,0,59.5,80.5m.25-.49A31.43,31.43,0,0,1,50,81.55h0V91.75h0a41.53,41.53,0,0,0,12.9-2L59.75,80Z"/><path d="M75.59,69.08l7.61,5.53a41.62,41.62,0,0,1-8.6,8.59L69.08,75.6a32.05,32.05,0,0,0,6.51-6.52m-.08-.55a31.83,31.83,0,0,1-7,7l6,8.25a42,42,0,0,0,9.23-9.23l-8.25-6Z"/><path d="M63.15,10.79A41.22,41.22,0,0,1,74,16.33l-5.53,7.61a31.81,31.81,0,0,0-8.21-4.19l2.91-9m-.25-.5L59.75,20a31.5,31.5,0,0,1,8.79,4.49l6-8.25A41.66,41.66,0,0,0,62.9,10.3Z"/><path d="M75.51,31.47l8.25-6a42.08,42.08,0,0,0-9.23-9.23l-6,8.25A31.82,31.82,0,0,1,75.51,31.47Z"/><path d="M83.67,26a41.21,41.21,0,0,1,5.54,10.83l-9,2.91a31.81,31.81,0,0,0-4.2-8.2L83.67,26m.09-.55-8.25,6A31.46,31.46,0,0,1,80,40.25l9.7-3.15a41.64,41.64,0,0,0-5.95-11.63Z"/><path d="M81.55,50H91.74a41.63,41.63,0,0,0-2-12.9L80,40.25A31.39,31.39,0,0,1,81.55,50Z"/><path d="M91.35,50.39a41.21,41.21,0,0,1-1.9,12l-9-2.91a31.81,31.81,0,0,0,1.45-9.11h9.41m.39-.39H81.55A31.38,31.38,0,0,1,80,59.75l9.7,3.15a41.62,41.62,0,0,0,2-12.9Z"/><path d="M40.25,20,37.1,10.3a41.69,41.69,0,0,0-11.63,5.94l6,8.25A31.57,31.57,0,0,1,40.25,20Z"/><path d="M50,18.45A31.4,31.4,0,0,1,59.75,20l3.15-9.7a41.58,41.58,0,0,0-12.9-2h0V18.45Z"/><path d="M24.49,31.47l-8.25-6A41.64,41.64,0,0,0,10.3,37.1L20,40.25A31.47,31.47,0,0,1,24.49,31.47Z"/><path d="M25.39,16.79l5.53,7.61a32.12,32.12,0,0,0-6.51,6.52l-7.61-5.53a41.67,41.67,0,0,1,8.6-8.6m.08-.55a42.08,42.08,0,0,0-9.23,9.23l8.25,6a31.85,31.85,0,0,1,7-7l-6-8.25Z"/><path d="M49.61,8.65v9.41a31.8,31.8,0,0,0-9.11,1.45l-2.91-9a41.21,41.21,0,0,1,12-1.9M50,8.26a41.6,41.6,0,0,0-12.9,2L40.25,20A31.42,31.42,0,0,1,50,18.45V8.26Z"/></g></g></svg>